<?xml version="1.0" encoding="UTF-8"?>
<svg xmlns="http://www.w3.org/2000/svg" version="1.1" width="400" height="400" viewBox="0 0 400 400"><rect x="0" y="0" width="400" height="400" fill="#fefefe"/><g transform="scale(9.756)"><g transform="translate(4,4)"><path fill-rule="evenodd" d="M9 0L9 1L8 1L8 2L9 2L9 3L8 3L8 4L10 4L10 7L11 7L11 4L12 4L12 5L13 5L13 6L12 6L12 9L13 9L13 8L14 8L14 9L15 9L15 10L17 10L17 9L18 9L18 10L19 10L19 9L20 9L20 10L21 10L21 11L20 11L20 12L19 12L19 11L18 11L18 12L17 12L17 11L16 11L16 12L17 12L17 13L18 13L18 15L19 15L19 17L20 17L20 19L18 19L18 20L17 20L17 17L18 17L18 16L14 16L14 15L17 15L17 14L16 14L16 13L12 13L12 11L13 11L13 10L11 10L11 11L10 11L10 9L11 9L11 8L6 8L6 9L5 9L5 8L0 8L0 13L1 13L1 14L0 14L0 17L1 17L1 14L2 14L2 15L3 15L3 16L4 16L4 17L2 17L2 18L4 18L4 19L3 19L3 20L1 20L1 19L0 19L0 25L1 25L1 21L2 21L2 22L4 22L4 21L5 21L5 22L6 22L6 23L9 23L9 24L8 24L8 27L9 27L9 28L8 28L8 33L10 33L10 31L9 31L9 30L11 30L11 29L12 29L12 30L13 30L13 31L12 31L12 33L13 33L13 32L14 32L14 33L18 33L18 32L17 32L17 31L19 31L19 32L20 32L20 31L21 31L21 33L23 33L23 32L24 32L24 33L25 33L25 32L24 32L24 31L27 31L27 32L28 32L28 33L29 33L29 31L30 31L30 32L31 32L31 33L32 33L32 32L31 32L31 31L30 31L30 30L33 30L33 28L32 28L32 29L30 29L30 28L31 28L31 27L32 27L32 26L33 26L33 24L32 24L32 26L31 26L31 25L30 25L30 24L31 24L31 23L32 23L32 22L33 22L33 21L32 21L32 20L31 20L31 19L32 19L32 18L33 18L33 17L32 17L32 16L31 16L31 15L32 15L32 14L33 14L33 13L31 13L31 15L30 15L30 13L29 13L29 10L28 10L28 8L27 8L27 9L26 9L26 8L25 8L25 5L24 5L24 4L25 4L25 3L23 3L23 1L24 1L24 0L23 0L23 1L22 1L22 0L19 0L19 1L20 1L20 2L19 2L19 5L18 5L18 8L17 8L17 9L16 9L16 7L17 7L17 5L16 5L16 4L18 4L18 3L17 3L17 2L16 2L16 4L12 4L12 2L13 2L13 1L11 1L11 2L10 2L10 0ZM15 0L15 1L17 1L17 0ZM14 2L14 3L15 3L15 2ZM10 3L10 4L11 4L11 3ZM20 3L20 5L19 5L19 8L18 8L18 9L19 9L19 8L20 8L20 9L22 9L22 8L23 8L23 9L24 9L24 10L23 10L23 11L22 11L22 12L20 12L20 13L19 13L19 12L18 12L18 13L19 13L19 15L20 15L20 17L21 17L21 19L22 19L22 18L23 18L23 19L25 19L25 20L23 20L23 21L24 21L24 22L22 22L22 21L20 21L20 20L18 20L18 21L17 21L17 22L16 22L16 21L15 21L15 20L14 20L14 19L15 19L15 18L16 18L16 17L14 17L14 16L13 16L13 17L12 17L12 15L13 15L13 14L12 14L12 13L11 13L11 12L10 12L10 13L9 13L9 14L10 14L10 16L11 16L11 17L10 17L10 18L9 18L9 19L6 19L6 20L5 20L5 19L4 19L4 20L5 20L5 21L6 21L6 22L9 22L9 19L10 19L10 20L11 20L11 19L10 19L10 18L13 18L13 19L12 19L12 21L11 21L11 23L10 23L10 27L11 27L11 26L13 26L13 27L12 27L12 29L15 29L15 30L16 30L16 31L17 31L17 30L19 30L19 31L20 31L20 30L19 30L19 28L21 28L21 29L22 29L22 28L23 28L23 30L21 30L21 31L24 31L24 27L22 27L22 28L21 28L21 25L22 25L22 26L24 26L24 25L22 25L22 24L23 24L23 23L24 23L24 24L27 24L27 22L25 22L25 21L27 21L27 20L28 20L28 19L26 19L26 18L25 18L25 17L28 17L28 18L29 18L29 17L30 17L30 19L29 19L29 20L30 20L30 21L28 21L28 24L30 24L30 23L29 23L29 22L30 22L30 21L31 21L31 20L30 20L30 19L31 19L31 16L30 16L30 15L29 15L29 13L28 13L28 16L26 16L26 14L25 14L25 13L27 13L27 12L28 12L28 11L27 11L27 10L25 10L25 8L24 8L24 5L23 5L23 4L22 4L22 3ZM8 5L8 7L9 7L9 5ZM22 5L22 7L21 7L21 6L20 6L20 8L22 8L22 7L23 7L23 5ZM13 6L13 7L14 7L14 8L15 8L15 7L16 7L16 6L15 6L15 7L14 7L14 6ZM29 8L29 9L30 9L30 8ZM31 8L31 10L33 10L33 9L32 9L32 8ZM3 9L3 10L4 10L4 11L1 11L1 13L2 13L2 14L3 14L3 15L4 15L4 14L5 14L5 15L6 15L6 16L7 16L7 17L6 17L6 18L8 18L8 12L9 12L9 9L8 9L8 11L5 11L5 9ZM6 9L6 10L7 10L7 9ZM14 11L14 12L15 12L15 11ZM24 11L24 12L22 12L22 13L20 13L20 14L24 14L24 16L23 16L23 15L21 15L21 16L23 16L23 18L24 18L24 17L25 17L25 14L24 14L24 13L25 13L25 12L26 12L26 11ZM30 11L30 12L31 12L31 11ZM3 12L3 13L5 13L5 12ZM6 12L6 13L7 13L7 12ZM10 13L10 14L11 14L11 13ZM6 14L6 15L7 15L7 14ZM28 16L28 17L29 17L29 16ZM6 20L6 21L7 21L7 20ZM12 21L12 22L13 22L13 23L12 23L12 25L13 25L13 24L14 24L14 25L16 25L16 26L15 26L15 27L14 27L14 28L15 28L15 29L16 29L16 30L17 30L17 29L18 29L18 28L17 28L17 29L16 29L16 27L17 27L17 26L20 26L20 25L21 25L21 24L22 24L22 22L21 22L21 24L20 24L20 23L19 23L19 24L17 24L17 23L16 23L16 22L15 22L15 21ZM18 21L18 22L20 22L20 21ZM3 23L3 24L2 24L2 25L3 25L3 24L5 24L5 25L7 25L7 24L5 24L5 23ZM14 23L14 24L15 24L15 23ZM19 24L19 25L20 25L20 24ZM25 25L25 28L28 28L28 25ZM29 25L29 28L30 28L30 27L31 27L31 26L30 26L30 25ZM26 26L26 27L27 27L27 26ZM9 28L9 29L10 29L10 28ZM25 29L25 30L28 30L28 31L29 31L29 30L28 30L28 29ZM14 31L14 32L15 32L15 31ZM0 0L0 7L7 7L7 0ZM1 1L1 6L6 6L6 1ZM2 2L2 5L5 5L5 2ZM26 0L26 7L33 7L33 0ZM27 1L27 6L32 6L32 1ZM28 2L28 5L31 5L31 2ZM0 26L0 33L7 33L7 26ZM1 27L1 32L6 32L6 27ZM2 28L2 31L5 31L5 28Z" fill="#000000"/></g></g></svg>
