<?xml version="1.0" encoding="UTF-8"?>
<svg xmlns="http://www.w3.org/2000/svg" version="1.1" width="400" height="400" viewBox="0 0 400 400"><rect x="0" y="0" width="400" height="400" fill="#fefefe"/><g transform="scale(9.756)"><g transform="translate(4,4)"><path fill-rule="evenodd" d="M9 0L9 1L11 1L11 2L9 2L9 3L8 3L8 5L9 5L9 6L8 6L8 7L9 7L9 9L8 9L8 8L5 8L5 9L3 9L3 10L1 10L1 9L2 9L2 8L0 8L0 11L3 11L3 12L1 12L1 13L2 13L2 14L1 14L1 15L0 15L0 16L1 16L1 17L2 17L2 18L3 18L3 19L4 19L4 21L1 21L1 20L2 20L2 19L1 19L1 18L0 18L0 19L1 19L1 20L0 20L0 25L2 25L2 24L3 24L3 25L7 25L7 24L8 24L8 28L10 28L10 29L9 29L9 31L8 31L8 33L9 33L9 31L10 31L10 32L11 32L11 31L12 31L12 33L13 33L13 32L14 32L14 33L18 33L18 32L17 32L17 29L18 29L18 28L17 28L17 26L20 26L20 27L19 27L19 28L21 28L21 29L19 29L19 30L18 30L18 31L19 31L19 32L21 32L21 33L23 33L23 32L24 32L24 33L25 33L25 32L24 32L24 31L25 31L25 29L27 29L27 31L28 31L28 33L29 33L29 30L31 30L31 31L30 31L30 32L31 32L31 33L32 33L32 32L31 32L31 31L33 31L33 27L32 27L32 26L33 26L33 25L32 25L32 24L31 24L31 23L32 23L32 20L31 20L31 19L30 19L30 20L29 20L29 19L28 19L28 18L27 18L27 17L25 17L25 14L26 14L26 15L28 15L28 17L29 17L29 18L30 18L30 17L29 17L29 15L30 15L30 16L31 16L31 18L32 18L32 19L33 19L33 17L32 17L32 16L33 16L33 15L32 15L32 14L33 14L33 12L31 12L31 11L30 11L30 12L29 12L29 9L30 9L30 8L28 8L28 10L27 10L27 12L26 12L26 11L24 11L24 13L22 13L22 14L24 14L24 16L23 16L23 19L22 19L22 20L21 20L21 19L20 19L20 18L22 18L22 17L21 17L21 16L20 16L20 17L19 17L19 19L18 19L18 18L17 18L17 17L18 17L18 16L17 16L17 14L15 14L15 12L16 12L16 13L17 13L17 11L14 11L14 12L13 12L13 13L12 13L12 14L13 14L13 15L12 15L12 17L13 17L13 16L14 16L14 17L15 17L15 18L12 18L12 19L9 19L9 18L11 18L11 17L9 17L9 15L11 15L11 12L12 12L12 11L13 11L13 10L11 10L11 8L10 8L10 7L11 7L11 4L12 4L12 5L13 5L13 6L12 6L12 9L13 9L13 8L14 8L14 10L15 10L15 9L16 9L16 8L14 8L14 7L15 7L15 5L16 5L16 7L17 7L17 5L16 5L16 3L17 3L17 4L18 4L18 3L17 3L17 2L16 2L16 0L13 0L13 1L12 1L12 0ZM17 0L17 1L18 1L18 0ZM21 0L21 1L20 1L20 2L19 2L19 5L18 5L18 8L17 8L17 9L18 9L18 10L20 10L20 11L23 11L23 10L24 10L24 9L23 9L23 8L22 8L22 9L23 9L23 10L20 10L20 9L18 9L18 8L21 8L21 6L22 6L22 7L23 7L23 5L24 5L24 8L25 8L25 5L24 5L24 4L25 4L25 3L23 3L23 0ZM13 1L13 2L12 2L12 4L14 4L14 2L15 2L15 3L16 3L16 2L15 2L15 1ZM21 1L21 2L22 2L22 1ZM9 3L9 5L10 5L10 3ZM22 3L22 4L20 4L20 5L19 5L19 7L20 7L20 6L21 6L21 5L23 5L23 3ZM9 6L9 7L10 7L10 6ZM13 6L13 7L14 7L14 6ZM6 9L6 10L7 10L7 11L5 11L5 12L3 12L3 13L5 13L5 12L7 12L7 11L8 11L8 12L10 12L10 11L11 11L11 10L10 10L10 9L9 9L9 10L10 10L10 11L8 11L8 10L7 10L7 9ZM25 9L25 10L26 10L26 9ZM31 9L31 10L32 10L32 9ZM3 10L3 11L4 11L4 10ZM18 11L18 12L19 12L19 13L18 13L18 15L19 15L19 14L20 14L20 15L21 15L21 13L20 13L20 12L19 12L19 11ZM28 12L28 13L27 13L27 14L28 14L28 15L29 15L29 12ZM30 12L30 15L31 15L31 16L32 16L32 15L31 15L31 12ZM6 13L6 14L7 14L7 15L6 15L6 16L5 16L5 15L4 15L4 14L3 14L3 15L1 15L1 16L2 16L2 17L3 17L3 16L4 16L4 19L5 19L5 17L6 17L6 18L7 18L7 19L6 19L6 20L5 20L5 21L4 21L4 22L1 22L1 24L2 24L2 23L3 23L3 24L4 24L4 23L6 23L6 24L7 24L7 23L6 23L6 22L8 22L8 24L9 24L9 27L10 27L10 22L9 22L9 21L6 21L6 20L9 20L9 19L8 19L8 17L6 17L6 16L7 16L7 15L8 15L8 13ZM9 13L9 14L10 14L10 13ZM24 13L24 14L25 14L25 13ZM24 17L24 19L25 19L25 20L23 20L23 21L22 21L22 23L21 23L21 25L23 25L23 26L22 26L22 27L21 27L21 28L23 28L23 29L22 29L22 31L21 31L21 30L20 30L20 31L21 31L21 32L22 32L22 31L23 31L23 30L24 30L24 27L23 27L23 26L24 26L24 24L29 24L29 28L30 28L30 29L32 29L32 27L31 27L31 26L32 26L32 25L31 25L31 24L30 24L30 23L29 23L29 22L30 22L30 21L31 21L31 20L30 20L30 21L29 21L29 22L28 22L28 21L27 21L27 18L26 18L26 19L25 19L25 17ZM16 18L16 19L15 19L15 20L14 20L14 19L12 19L12 21L11 21L11 24L12 24L12 23L13 23L13 22L12 22L12 21L14 21L14 22L15 22L15 20L16 20L16 19L17 19L17 20L18 20L18 21L16 21L16 23L14 23L14 25L11 25L11 26L13 26L13 27L12 27L12 29L10 29L10 31L11 31L11 30L12 30L12 31L14 31L14 32L16 32L16 31L15 31L15 30L12 30L12 29L15 29L15 28L16 28L16 29L17 29L17 28L16 28L16 27L15 27L15 24L16 24L16 25L18 25L18 24L19 24L19 25L20 25L20 24L19 24L19 23L20 23L20 22L21 22L21 20L20 20L20 19L19 19L19 20L18 20L18 19L17 19L17 18ZM5 21L5 22L6 22L6 21ZM18 21L18 22L20 22L20 21ZM23 21L23 22L24 22L24 21ZM25 21L25 22L26 22L26 21ZM27 22L27 23L28 23L28 22ZM16 23L16 24L17 24L17 23ZM22 23L22 24L24 24L24 23ZM25 25L25 28L28 28L28 25ZM30 25L30 26L31 26L31 25ZM26 26L26 27L27 27L27 26ZM30 27L30 28L31 28L31 27ZM0 0L0 7L7 7L7 0ZM1 1L1 6L6 6L6 1ZM2 2L2 5L5 5L5 2ZM26 0L26 7L33 7L33 0ZM27 1L27 6L32 6L32 1ZM28 2L28 5L31 5L31 2ZM0 26L0 33L7 33L7 26ZM1 27L1 32L6 32L6 27ZM2 28L2 31L5 31L5 28Z" fill="#000000"/></g></g></svg>
